<svg width="4400" height="1646" viewBox="0 0 4400 1646" fill="none" xmlns="http://www.w3.org/2000/svg">
<rect width="4400" height="1646" fill="#E2D9D5"/>
<path d="M4124.69 1355.78C4064.43 1403 4006.65 1428.47 3959.43 1428.47C3901.03 1428.47 3863.76 1388.71 3863.76 1330.93C3863.76 1222.83 3992.98 1170.02 4119.1 1221.59C4105.43 1173.75 4070.02 1146.41 4013.48 1146.41C3968.13 1146.41 3940.17 1164.43 3928.99 1202.33L3868.73 1196.11C3886.74 1136.47 3944.52 1099.82 4020.32 1099.82C4120.96 1099.82 4182.47 1163.81 4182.47 1267.56V1422.26L4124.69 1422.88V1355.78ZM4124.69 1275.64C4037.71 1229.66 3921.54 1257 3921.54 1327.2C3921.54 1354.54 3939.55 1371.93 3973.72 1371.93C4016.59 1371.93 4070.02 1345.22 4124.69 1295.52V1275.64Z" fill="#A0471A"/>
<path d="M3530.35 1338.39L3588.13 1328.44C3594.96 1369.45 3615.46 1385.6 3662.06 1385.6C3712.38 1385.6 3742.82 1366.34 3742.82 1335.28C3742.82 1256.38 3541.53 1302.97 3541.53 1195.49C3541.53 1141.44 3592.47 1099.82 3659.57 1099.82C3727.91 1099.82 3787.55 1142.69 3794.39 1196.74L3736.61 1202.95C3729.78 1163.19 3709.27 1146.41 3666.41 1146.41C3625.4 1146.41 3599.31 1161.94 3599.31 1186.17C3599.31 1253.27 3800.6 1212.89 3800.6 1331.55C3800.6 1393.06 3747.17 1435.3 3669.51 1435.3C3593.72 1435.3 3536.56 1395.54 3530.35 1338.39Z" fill="#A0471A"/>
<path d="M3313.59 1435.3C3212.33 1435.3 3143.99 1368.21 3143.99 1267.56C3143.99 1167.54 3211.71 1099.82 3312.97 1099.82C3414.24 1099.82 3482.58 1167.54 3482.58 1267.56C3482.58 1367.58 3414.86 1435.3 3313.59 1435.3ZM3312.97 1146.41C3237.8 1146.41 3206.12 1182.45 3206.12 1267.56C3206.12 1352.67 3237.8 1388.71 3312.97 1388.71C3388.15 1388.71 3420.45 1352.67 3420.45 1267.56C3420.45 1182.45 3388.15 1146.41 3312.97 1146.41Z" fill="#A0471A"/>
<path d="M2756.21 1422.88V987.989H2930.78C3051.31 987.989 3091.69 1019.05 3091.69 1111.62C3091.69 1185.55 3066.22 1220.97 2994.77 1232.15L3113.44 1422.88H3041.99L2925.81 1236.5H2815.23V1422.88H2756.21ZM2815.23 1040.8V1183.69H2908.42C3000.37 1183.69 3029.57 1166.29 3029.57 1112.24C3029.57 1058.19 3000.37 1040.8 2908.42 1040.8H2815.23Z" fill="#A0471A"/>
<path d="M2167.36 1267.56C2167.36 1167.54 2235.07 1099.82 2336.34 1099.82C2437.61 1099.82 2505.95 1167.54 2505.95 1278.74V1281.85H2230.1C2233.21 1357.02 2266.14 1388.71 2344.42 1388.71C2398.47 1388.71 2426.43 1373.18 2437.61 1332.79L2497.87 1338.39C2479.23 1401.75 2427.05 1435.3 2347.52 1435.3C2235.7 1435.3 2167.36 1368.21 2167.36 1267.56ZM2231.35 1233.39H2440.71C2431.4 1171.26 2398.47 1146.41 2336.34 1146.41C2272.35 1146.41 2239.42 1172.51 2231.35 1233.39Z" fill="#A0471A"/>
<path d="M1766.47 1267.56C1766.47 1167.54 1834.81 1099.82 1930.48 1099.82C1979.56 1099.82 2016.84 1117.83 2042.93 1147.66V987.989H2100.71V1422.88H2049.15L2042.93 1387.47C2016.84 1417.29 1979.56 1435.3 1929.86 1435.3C1834.19 1435.3 1766.47 1367.59 1766.47 1267.56ZM1828.6 1267.56C1828.6 1352.67 1860.9 1388.71 1932.97 1388.71C2007.52 1388.71 2039.83 1350.81 2042.93 1272.53V1262.59C2039.83 1184.31 2007.52 1146.41 1932.97 1146.41C1860.9 1146.41 1828.6 1182.45 1828.6 1267.56Z" fill="#A0471A"/>
<path d="M3244.16 686.217C3183.9 733.434 3126.12 758.906 3078.91 758.906C3020.51 758.906 2983.23 719.144 2983.23 661.366C2983.23 553.265 3112.45 500.457 3238.57 552.023C3224.9 504.185 3189.49 476.849 3132.96 476.849C3087.6 476.849 3059.65 494.866 3048.46 532.763L2988.2 526.551C3006.22 466.909 3064 430.254 3139.79 430.254C3240.44 430.254 3301.94 494.245 3301.94 597.997V752.693L3244.16 753.314V686.217ZM3244.16 606.073C3157.19 560.099 3041.01 587.435 3041.01 657.639C3041.01 684.975 3059.03 702.37 3093.2 702.37C3136.06 702.37 3189.49 675.656 3244.16 625.954V606.073Z" fill="#A0471A"/>
<path d="M2652.82 668.822L2710.6 658.881C2717.43 699.885 2737.93 716.038 2784.53 716.038C2834.85 716.038 2865.29 696.779 2865.29 665.715C2865.29 586.814 2664 633.409 2664 525.929C2664 471.879 2714.95 430.254 2782.04 430.254C2850.38 430.254 2910.03 473.122 2916.86 527.172L2859.08 533.385C2852.25 493.623 2831.75 476.849 2788.88 476.849C2747.87 476.849 2721.78 492.381 2721.78 516.61C2721.78 583.708 2923.07 543.325 2923.07 661.988C2923.07 723.493 2869.64 765.74 2791.98 765.74C2716.19 765.74 2659.03 725.978 2652.82 668.822Z" fill="#A0471A"/>
<path d="M2528.41 686.217C2468.15 733.434 2410.37 758.906 2363.16 758.906C2304.76 758.906 2267.48 719.144 2267.48 661.366C2267.48 553.265 2396.7 500.457 2522.82 552.023C2509.15 504.185 2473.74 476.849 2417.21 476.849C2371.85 476.849 2343.9 494.866 2332.71 532.763L2272.45 526.551C2290.47 466.909 2348.25 430.254 2424.04 430.254C2524.69 430.254 2586.19 494.245 2586.19 597.997V752.693L2528.41 753.314V686.217ZM2528.41 606.073C2441.44 560.099 2325.26 587.435 2325.26 657.639C2325.26 684.975 2343.28 702.37 2377.45 702.37C2420.31 702.37 2473.74 675.656 2528.41 625.954V606.073Z" fill="#A0471A"/>
<path d="M1785.59 535.249C1785.59 397.948 1875.68 306 2009.25 306C2101.2 306 2168.92 349.489 2203.09 429.633L2141.58 438.331C2118.59 391.735 2079.45 368.127 2026.03 368.127H1992.48C1909.85 368.127 1852.69 423.42 1852.69 504.806V566.933C1852.69 648.32 1909.85 703.613 1992.48 703.613H2026.03C2089.39 703.613 2137.85 670.064 2154.63 614.771L2216.13 623.469C2186.31 712.932 2109.9 765.74 2009.25 765.74C1875.68 765.74 1785.59 673.171 1785.59 535.249Z" fill="#A0471A"/>
<path fill-rule="evenodd" clip-rule="evenodd" d="M1148.71 428.12C1229.25 432.268 1310.45 458.533 1371.59 483.626C1404.38 497.079 1431.99 510.442 1451.45 520.466C1461.19 525.484 1482.73 537.468 1482.73 537.468C1490.29 541.936 1495.39 549.608 1496.6 558.305C1496.6 558.305 1497.53 565.731 1497.89 569.103C1498.63 575.85 1499.57 585.561 1500.45 597.65C1502.2 621.798 1503.69 655.584 1502.66 694.272C1500.71 766.746 1489.85 859.454 1452.9 938.212C1489.86 1016.97 1500.72 1109.67 1502.66 1182.14C1503.7 1220.82 1502.2 1254.6 1500.45 1278.75C1500.44 1278.87 1496.6 1318.09 1496.6 1318.09C1495.27 1327.69 1489.2 1335.98 1480.44 1340.15C1480.44 1340.15 1462.74 1348.05 1462.66 1348.08C1460.75 1348.9 1431.84 1360.85 1415.16 1367.08C1396.15 1374.19 1373.56 1382.08 1348.28 1389.9C1325.34 1397 1261.34 1413.02 1255.21 1414.51C1220.08 1423.06 992.543 1450.62 855.993 1383.34C732.296 1452.14 577.492 1440.85 456.785 1414.51C393.094 1400.61 336.987 1382.1 296.828 1367.08C276.722 1359.57 260.542 1352.9 249.328 1348.08C243.718 1345.67 231.545 1340.15 231.545 1340.15C222.791 1335.98 216.717 1327.69 215.384 1318.09L215.384 1318.09C215.384 1318.09 212.415 1290.84 211.541 1278.75L211.541 1278.75C209.791 1254.6 208.304 1220.82 209.344 1182.14V1182.14C209.906 1161.25 211.21 1138.68 213.665 1115.25C219.727 1057.39 232.815 994.268 259.121 938.213C222.163 859.458 211.294 766.748 209.344 694.275C208.304 655.585 209.791 621.801 211.541 597.651C212.415 585.562 213.36 575.853 214.093 569.106C214.459 565.731 215.384 558.308 215.384 558.308C216.586 549.637 221.664 541.985 229.18 537.51C229.18 537.51 250.242 525.703 259.765 520.757C278.794 510.871 305.804 497.674 337.89 484.341C397.574 459.535 476.831 433.401 555.721 428.45C601.769 357.947 671.753 301.341 729.76 262.319C760.89 241.375 789.268 225.041 809.896 213.922C820.221 208.358 828.639 204.081 834.524 201.174C837.468 199.72 844.012 196.612 844.012 196.612C847.82 194.868 851.908 194 855.993 194C860.449 194 864.901 195.034 868.978 197.094C868.978 197.094 877.685 201.683 877.91 201.805C883.468 204.804 891.423 209.207 901.214 214.91C920.78 226.305 947.772 242.957 977.648 264.074C1033.47 303.529 1101.27 359.907 1148.71 428.119L1148.71 428.12ZM754.422 510.499C695.644 490.813 633.362 483.781 572.879 485.359L572.872 485.36C499.291 487.274 421.062 512.173 359.975 537.561C329.698 550.143 304.193 562.607 286.296 571.904C280.217 575.062 275.025 577.85 270.837 580.144C270.262 585.845 269.601 593.156 268.975 601.817C267.33 624.514 265.93 656.343 266.909 692.725C268.885 766.201 280.505 854.878 316.669 924.724C316.706 924.793 316.742 924.863 316.778 924.932C355.165 998.892 410.208 1067.44 483.704 1115C555.922 1161.73 632.667 1184.93 697.423 1201.39C725.408 1197.91 770.245 1189.87 797.869 1179.55C843.428 1162.52 878.214 1144.1 887.964 1137.59C872.036 1140.6 838.803 1142.19 838.803 1142.19C838.803 1142.19 767.125 1144.41 709.058 1125.93C664.648 1111.79 609.984 1082.88 579.999 1055.23C488.341 970.739 468.597 861.106 491.311 753.839C522.634 605.926 636.91 537.14 754.422 510.499ZM1129.1 1152.78C1145.54 1145.36 1161.78 1137.07 1177.66 1127.82L1178.82 1127.14C1271.93 1072.61 1358.4 995.618 1395.07 925.265C1395.12 925.156 1395.18 925.047 1395.23 924.938C1431.49 855.06 1443.12 766.279 1445.09 692.729C1446.07 656.348 1444.66 624.516 1443.02 601.821C1442.39 593.183 1441.73 585.891 1441.16 580.198C1436.83 577.843 1431.44 574.968 1425.1 571.705C1406.79 562.273 1380.7 549.643 1349.75 536.943C1287.31 511.322 1207.44 486.398 1132.56 485.224L1132.55 485.224C1069.5 484.247 1004.73 492.738 944.183 515.241C1110.77 560.636 1233.95 708.297 1233.95 884.791C1233.95 985.521 1199.78 1081.54 1129.1 1152.78ZM855.394 255.156C850.521 257.616 844.375 260.794 837.206 264.66C817.843 275.096 791.134 290.469 761.889 310.145C716.027 340.995 665.56 381.342 626.976 428.6C704.106 433.057 783.749 451.744 855.999 492.945C925.727 453.205 1002.32 434.415 1076.88 429.132C1037.56 382.566 988.371 342.209 944.421 311.145C916.201 291.196 890.674 275.451 872.243 264.714C865.632 260.864 859.948 257.667 855.394 255.156ZM797.273 1271.13C807.666 1284.62 849.435 1317.78 863.819 1326.12C910.416 1353.13 991.261 1369.01 1061.58 1371.44C1153.53 1374.63 1238.25 1359.23 1242.94 1358.21C1292 1347.5 1336.47 1333.86 1372 1321.43C1380.16 1318.57 1387.85 1315.78 1395.01 1313.1L1395.94 1312.75C1415.01 1305.59 1440.88 1294.73 1441.32 1294.54C1441.86 1289.11 1442.45 1282.4 1443.02 1274.58C1444.66 1251.89 1446.07 1220.06 1445.09 1183.69C1443.55 1126.25 1436.12 1059.51 1415.66 999.75C1365.33 1066.98 1286.74 1130.71 1207.9 1176.88C1098.44 1240.99 975.814 1262.93 881.843 1269.17C850.119 1271.28 821.42 1271.62 797.273 1271.13ZM266.908 1183.69V1183.69C265.929 1220.07 267.329 1251.89 268.974 1274.59C269.538 1282.4 270.132 1289.11 270.664 1294.54C271.113 1294.73 297.835 1305.95 316.982 1313.1C355.33 1327.44 408.733 1345.05 469.054 1358.21C576.339 1381.62 699.806 1389.72 800.093 1346.66C765.429 1321.29 733.976 1293.5 706.015 1264.02C621.475 1249.78 534.157 1216.27 452.438 1163.4V1163.4C386.712 1120.87 334.865 1064.22 295.337 1002.75C275.647 1061.74 268.428 1127.21 266.908 1183.69ZM1102.81 877.87C1102.81 925.219 1090.42 1039.19 973.434 1136.31C940.814 1163.39 896.643 1191.18 846.497 1213.39C929.765 1201.04 1034.92 1167.5 1089.89 1111.64C1144.33 1056.33 1176.36 976.027 1176.36 884.794C1176.36 705.769 1024.96 558.477 836.067 558.477C721.313 558.477 581.633 625.234 547.534 766.346C533.453 848.378 551.266 937.2 603.854 998.971C585.134 962.691 574.563 921.516 574.563 877.871C574.563 731.891 692.813 613.554 838.687 613.554C984.555 613.554 1102.81 731.891 1102.81 877.871L1102.81 877.87ZM838.907 672.158C724.722 672.158 632.019 764.929 632.019 879.197C632.019 993.466 724.722 1086.24 838.907 1086.24C953.091 1086.24 1045.79 993.465 1045.79 879.197C1045.79 764.929 953.091 672.158 838.907 672.158Z" fill="#A0471A"/>
</svg>
