<svg width="1646" height="1646" viewBox="0 0 1646 1646" fill="none" xmlns="http://www.w3.org/2000/svg">
<rect width="1646" height="1646" fill="#E2D9D5"/>
<path fill-rule="evenodd" clip-rule="evenodd" d="M1115.71 436.12C1196.25 440.268 1277.45 466.533 1338.59 491.626C1371.38 505.079 1398.99 518.442 1418.45 528.466C1428.19 533.484 1449.73 545.468 1449.73 545.468C1457.29 549.936 1462.39 557.608 1463.6 566.305C1463.6 566.305 1464.53 573.731 1464.89 577.103C1465.63 583.85 1466.57 593.561 1467.45 605.65C1469.2 629.798 1470.69 663.584 1469.66 702.272C1467.71 774.746 1456.85 867.454 1419.9 946.212C1456.86 1024.97 1467.72 1117.67 1469.66 1190.14C1470.7 1228.82 1469.2 1262.6 1467.45 1286.75C1467.44 1286.87 1463.6 1326.09 1463.6 1326.09C1462.27 1335.69 1456.2 1343.98 1447.44 1348.15C1447.44 1348.15 1429.74 1356.05 1429.66 1356.08C1427.75 1356.9 1398.84 1368.85 1382.16 1375.08C1363.15 1382.19 1340.56 1390.08 1315.28 1397.9C1292.34 1405 1228.34 1421.02 1222.21 1422.51C1187.08 1431.06 959.543 1458.62 822.993 1391.34C699.296 1460.14 544.492 1448.85 423.785 1422.51C360.094 1408.61 303.987 1390.1 263.828 1375.08C243.722 1367.57 227.542 1360.9 216.328 1356.08C210.718 1353.67 198.545 1348.15 198.545 1348.15C189.791 1343.98 183.717 1335.69 182.384 1326.09L182.384 1326.09C182.384 1326.09 179.415 1298.84 178.541 1286.75L178.541 1286.75C176.791 1262.6 175.304 1228.82 176.344 1190.14V1190.14C176.906 1169.25 178.21 1146.68 180.665 1123.25C186.727 1065.39 199.815 1002.27 226.121 946.213C189.163 867.458 178.294 774.748 176.344 702.275C175.304 663.585 176.791 629.801 178.541 605.651C179.415 593.562 180.36 583.853 181.093 577.106C181.459 573.731 182.384 566.308 182.384 566.308C183.586 557.637 188.664 549.985 196.18 545.51C196.18 545.51 217.242 533.703 226.765 528.757C245.794 518.871 272.804 505.674 304.89 492.341C364.574 467.535 443.831 441.401 522.721 436.45C568.769 365.947 638.753 309.341 696.76 270.319C727.89 249.375 756.268 233.041 776.896 221.922C787.221 216.358 795.639 212.081 801.524 209.174C804.468 207.72 811.012 204.612 811.012 204.612C814.82 202.868 818.908 202 822.993 202C827.449 202 831.901 203.034 835.978 205.094C835.978 205.094 844.685 209.683 844.91 209.805C850.468 212.804 858.423 217.207 868.214 222.91C887.78 234.305 914.772 250.957 944.648 272.074C1000.47 311.529 1068.27 367.907 1115.71 436.119L1115.71 436.12ZM721.422 518.499C662.644 498.813 600.362 491.781 539.879 493.359L539.872 493.36C466.291 495.274 388.062 520.173 326.975 545.561C296.698 558.143 271.193 570.607 253.296 579.904C247.217 583.062 242.025 585.85 237.837 588.144C237.262 593.845 236.601 601.156 235.975 609.817C234.33 632.514 232.93 664.343 233.909 700.725C235.885 774.201 247.505 862.878 283.669 932.724C283.706 932.793 283.742 932.863 283.778 932.932C322.165 1006.89 377.208 1075.44 450.704 1123C522.922 1169.73 599.667 1192.93 664.423 1209.39C692.408 1205.91 737.245 1197.87 764.869 1187.55C810.428 1170.52 845.214 1152.1 854.964 1145.59C839.036 1148.6 805.803 1150.19 805.803 1150.19C805.803 1150.19 734.125 1152.41 676.058 1133.93C631.648 1119.79 576.984 1090.88 546.999 1063.23C455.341 978.739 435.597 869.106 458.311 761.839C489.634 613.926 603.91 545.14 721.422 518.499ZM1096.1 1160.78C1112.54 1153.36 1128.78 1145.07 1144.66 1135.82L1145.82 1135.14C1238.93 1080.61 1325.4 1003.62 1362.07 933.265C1362.12 933.156 1362.18 933.047 1362.23 932.938C1398.49 863.06 1410.12 774.279 1412.09 700.729C1413.07 664.348 1411.66 632.516 1410.02 609.821C1409.39 601.183 1408.73 593.891 1408.16 588.198C1403.83 585.843 1398.44 582.968 1392.1 579.705C1373.79 570.273 1347.7 557.643 1316.75 544.943C1254.31 519.322 1174.44 494.398 1099.56 493.224L1099.55 493.224C1036.5 492.247 971.732 500.738 911.183 523.241C1077.77 568.636 1200.95 716.297 1200.95 892.791C1200.95 993.521 1166.78 1089.54 1096.1 1160.78ZM822.394 263.156C817.521 265.616 811.375 268.794 804.206 272.66C784.843 283.096 758.134 298.469 728.889 318.145C683.027 348.995 632.56 389.342 593.976 436.6C671.106 441.057 750.749 459.744 822.999 500.945C892.727 461.205 969.322 442.415 1043.88 437.132C1004.56 390.566 955.371 350.209 911.421 319.145C883.201 299.196 857.674 283.451 839.243 272.714C832.632 268.864 826.948 265.667 822.394 263.156ZM764.273 1279.13C774.666 1292.62 816.435 1325.78 830.819 1334.12C877.416 1361.13 958.261 1377.01 1028.58 1379.44C1120.53 1382.63 1205.25 1367.23 1209.94 1366.21C1259 1355.5 1303.47 1341.86 1339 1329.43C1347.16 1326.57 1354.85 1323.78 1362.01 1321.1L1362.94 1320.75C1382.01 1313.59 1407.88 1302.73 1408.32 1302.54C1408.86 1297.11 1409.45 1290.4 1410.02 1282.58C1411.66 1259.89 1413.07 1228.06 1412.09 1191.69C1410.55 1134.25 1403.12 1067.51 1382.66 1007.75C1332.33 1074.98 1253.74 1138.71 1174.9 1184.88C1065.44 1248.99 942.814 1270.93 848.843 1277.17C817.119 1279.28 788.42 1279.62 764.273 1279.13ZM233.908 1191.69V1191.69C232.929 1228.07 234.329 1259.89 235.974 1282.59C236.538 1290.4 237.132 1297.11 237.664 1302.54C238.113 1302.73 264.835 1313.95 283.982 1321.1C322.33 1335.44 375.733 1353.05 436.054 1366.21C543.339 1389.62 666.806 1397.72 767.093 1354.66C732.429 1329.29 700.976 1301.5 673.015 1272.02C588.475 1257.78 501.157 1224.27 419.438 1171.4V1171.4C353.712 1128.87 301.865 1072.22 262.337 1010.75C242.647 1069.74 235.428 1135.21 233.908 1191.69ZM1069.81 885.87C1069.81 933.219 1057.42 1047.19 940.434 1144.31C907.814 1171.39 863.643 1199.18 813.497 1221.39C896.765 1209.04 1001.92 1175.5 1056.89 1119.64C1111.33 1064.33 1143.36 984.027 1143.36 892.794C1143.36 713.769 991.962 566.477 803.067 566.477C688.313 566.477 548.633 633.234 514.534 774.346C500.453 856.378 518.266 945.2 570.854 1006.97C552.134 970.691 541.563 929.516 541.563 885.871C541.563 739.891 659.813 621.554 805.687 621.554C951.555 621.554 1069.81 739.891 1069.81 885.871L1069.81 885.87ZM805.907 680.158C691.722 680.158 599.019 772.929 599.019 887.197C599.019 1001.47 691.722 1094.24 805.907 1094.24C920.091 1094.24 1012.79 1001.46 1012.79 887.197C1012.79 772.929 920.091 680.158 805.907 680.158Z" fill="#A0471A"/>
</svg>
